# xmcd CD database file
#
# Track frame offsets:
#	150
#	32047
#	45680
#	89079
#	103714
#	121738
#	138375
#	155312
#	175166
#	187111
#	198788
#	207558
#	221083
#	245048
#	264613
#	292653
#	318123
#	332341
#	353838
#
# Disc length: 4846 seconds
#
# Revision: 0
# Processed by: cddbd v1.5.1PL0 Copyright (c) Steve Scherf et al.
# Submitted via: CDex 1.51
#
DISCID=1a12ec13
DTITLE=MJQ-Chet Baker - Django-Young Chet
DYEAR=1900
DGENRE=Jazz
TTITLE0=Modern Jazz Quartet - Django
TTITLE1=Modern Jazz Quartet - One Bass Hit
TTITLE2=Modern Jazz Quartet - La Ronde Suite
TTITLE3=Modern Jazz Quartet - The Queen's Fancy
TTITLE4=Modern Jazz Quartet - Delaunay's Dilemma
TTITLE5=Modern Jazz Quartet - Autumn in New York
TTITLE6=Modern Jazz Quartet - But Not For Me
TTITLE7=Modern Jazz Quartet - Milano
TTITLE8=01 - Look For The Silver Lining-Capitol Studios, LA-15 Feb 1954
TTITLE9=03 - Time After Time
TTITLE10=04 - My Funny Valentine
TTITLE11=05 - There Will Never Be Another You
TTITLE12=06 - Extra Mild-Forum Theatre, LA-July 1956
TTITLE13=07 - A Night On Bop Mountain
TTITLE14=08 - Down
TTITLE15=09 - Taboo
TTITLE16=10 - I Can't Get Started
TTITLE17=11 - It's Only A Paper Moon
TTITLE18=12 - Autumn In New York
EXTD=
EXTT0=
EXTT1=
EXTT2=
EXTT3=
EXTT4=
EXTT5=
EXTT6=
EXTT7=
EXTT8=
EXTT9=
EXTT10=
EXTT11=
EXTT12=
EXTT13=
EXTT14=
EXTT15=
EXTT16=
EXTT17=
EXTT18=
PLAYORDER=
